<?xml version="1.0" encoding="UTF-8" standalone="no"?>
<svg
   xmlns:dc="http://purl.org/dc/elements/1.1/"
   xmlns:cc="http://creativecommons.org/ns#"
   xmlns:rdf="http://www.w3.org/1999/02/22-rdf-syntax-ns#"
   xmlns:svg="http://www.w3.org/2000/svg"
   xmlns="http://www.w3.org/2000/svg"
   xmlns:sodipodi="http://sodipodi.sourceforge.net/DTD/sodipodi-0.dtd"
   xmlns:inkscape="http://www.inkscape.org/namespaces/inkscape"
   height="24"
   viewBox="0 0 24 24"
   width="24"
   id="svg2"
   version="1.1"
   inkscape:version="0.91 r13725"
   sodipodi:docname="network.svg">
  <metadata
     id="metadata14">
    <rdf:RDF>
      <cc:Work
         rdf:about="">
        <dc:format>image/svg+xml</dc:format>
        <dc:type
           rdf:resource="http://purl.org/dc/dcmitype/StillImage" />
      </cc:Work>
    </rdf:RDF>
  </metadata>
  <defs
     id="defs12" />
  <sodipodi:namedview
     pagecolor="#ffffff"
     bordercolor="#666666"
     borderopacity="1"
     objecttolerance="10"
     gridtolerance="10"
     guidetolerance="10"
     inkscape:pageopacity="0"
     inkscape:pageshadow="2"
     inkscape:window-width="1879"
     inkscape:window-height="1059"
     id="namedview10"
     showgrid="false"
     inkscape:zoom="9.8333333"
     inkscape:cx="12.610169"
     inkscape:cy="12"
     inkscape:window-x="41"
     inkscape:window-y="21"
     inkscape:window-maximized="1"
     inkscape:current-layer="svg2" />
  <path
     d="M0 0h24v24H0V0z"
     fill="none"
     id="path4" />
  <circle
     cx="6.18"
     cy="17.82"
     r="2.18"
     id="circle6"
     style="fill:#333333;fill-opacity:1" />
  <path
     d="M5.59 10.23c-.84-.14-1.59.55-1.59 1.4 0 .71.53 1.28 1.23 1.4 2.92.51 5.22 2.82 5.74 5.74.12.7.69 1.23 1.4 1.23.85 0 1.54-.75 1.41-1.59-.68-4.2-3.99-7.51-8.19-8.18zm-.03-5.71C4.73 4.43 4 5.1 4 5.93c0 .73.55 1.33 1.27 1.4 6.01.6 10.79 5.38 11.39 11.39.07.73.67 1.28 1.4 1.28.84 0 1.5-.73 1.42-1.56-.73-7.34-6.57-13.19-13.92-13.92z"
     id="path8"
     style="fill:#333333;fill-opacity:1" />
</svg>
