<?xml version="1.0" encoding="UTF-8" standalone="no"?>
<svg
   xmlns:dc="http://purl.org/dc/elements/1.1/"
   xmlns:cc="http://creativecommons.org/ns#"
   xmlns:rdf="http://www.w3.org/1999/02/22-rdf-syntax-ns#"
   xmlns:svg="http://www.w3.org/2000/svg"
   xmlns="http://www.w3.org/2000/svg"
   xmlns:sodipodi="http://sodipodi.sourceforge.net/DTD/sodipodi-0.dtd"
   xmlns:inkscape="http://www.inkscape.org/namespaces/inkscape"
   height="24"
   viewBox="0 0 24 24"
   width="24"
   id="svg12"
   version="1.1"
   inkscape:version="0.91 r13725"
   sodipodi:docname="playlist_del.svg">
  <metadata
     id="metadata20">
    <rdf:RDF>
      <cc:Work
         rdf:about="">
        <dc:format>image/svg+xml</dc:format>
        <dc:type
           rdf:resource="http://purl.org/dc/dcmitype/StillImage" />
      </cc:Work>
    </rdf:RDF>
  </metadata>
  <defs
     id="defs18" />
  <sodipodi:namedview
     pagecolor="#ffffff"
     bordercolor="#666666"
     borderopacity="1"
     objecttolerance="10"
     gridtolerance="10"
     guidetolerance="10"
     inkscape:pageopacity="0"
     inkscape:pageshadow="2"
     inkscape:window-width="656"
     inkscape:window-height="480"
     id="namedview16"
     showgrid="false"
     inkscape:zoom="4.9166667"
     inkscape:cx="12.610139"
     inkscape:cy="15.147443"
     inkscape:window-x="2327"
     inkscape:window-y="372"
     inkscape:window-maximized="0"
     inkscape:current-layer="svg12" />
  <path
     d="M 13,10 3,10 c -0.55,0 -1,0.45 -1,1 0,0.55 0.45,1 1,1 l 10,0 c 0.55,0 1,-0.45 1,-1 0,-0.55 -0.45,-1 -1,-1 z M 13,6 3,6 C 2.45,6 2,6.45 2,7 2,7.55 2.45,8 3,8 L 13,8 C 13.55,8 14,7.55 14,7 14,6.45 13.55,6 13,6 Z m 2.084746,8 c 0,0 -1,0.45 -1,1 0,0.55 1,1 1,1 L 21,16 c 0,0 1,-0.45 1,-1 0,-0.55 -1,-1 -1,-1 z M 3,16 9,16 c 0.55,0 1,-0.45 1,-1 0,-0.55 -0.45,-1 -1,-1 l -6,0 c -0.55,0 -1,0.45 -1,1 0,0.55 0.45,1 1,1 z"
     id="path14"
     style="fill:#333333"
     inkscape:connector-curvature="0"
     sodipodi:nodetypes="sssssssssssssscsccsccsssssss" />
</svg>
