<?xml version="1.0" encoding="UTF-8" standalone="no"?>
<svg
   xmlns:dc="http://purl.org/dc/elements/1.1/"
   xmlns:cc="http://creativecommons.org/ns#"
   xmlns:rdf="http://www.w3.org/1999/02/22-rdf-syntax-ns#"
   xmlns:svg="http://www.w3.org/2000/svg"
   xmlns="http://www.w3.org/2000/svg"
   xmlns:sodipodi="http://sodipodi.sourceforge.net/DTD/sodipodi-0.dtd"
   xmlns:inkscape="http://www.inkscape.org/namespaces/inkscape"
   height="24"
   viewBox="0 0 24 24"
   width="24"
   id="svg4194"
   version="1.1"
   inkscape:version="0.91 r13725"
   sodipodi:docname="toggle_off.svg">
  <metadata
     id="metadata4206">
    <rdf:RDF>
      <cc:Work
         rdf:about="">
        <dc:format>image/svg+xml</dc:format>
        <dc:type
           rdf:resource="http://purl.org/dc/dcmitype/StillImage" />
      </cc:Work>
    </rdf:RDF>
  </metadata>
  <defs
     id="defs4204" />
  <sodipodi:namedview
     pagecolor="#ffffff"
     bordercolor="#666666"
     borderopacity="1"
     objecttolerance="10"
     gridtolerance="10"
     guidetolerance="10"
     inkscape:pageopacity="0"
     inkscape:pageshadow="2"
     inkscape:window-width="1885"
     inkscape:window-height="1062"
     id="namedview4202"
     showgrid="false"
     inkscape:zoom="32"
     inkscape:cx="19.796536"
     inkscape:cy="8.8317992"
     inkscape:window-x="1955"
     inkscape:window-y="18"
     inkscape:window-maximized="1"
     inkscape:current-layer="svg4194" />
  <path
     style="fill:#8e8e8e;fill-opacity:1"
     id="path4743"
     d="M 17,6 7,6 c -3.31,0 -6,2.69 -6,6 0,3.31 2.69,6 6,6 l 10,0 c 3.31,0 6,-2.69 6,-6 C 23,8.69 20.31,6 17,6 Z M 17,16 7,16 C 4.79,16 3,14.21 3,12 3,9.79 4.79,8 7,8 l 10,0 c 2.21,0 4,1.79 4,4 0,2.21 -1.79,4 -4,4 z"
     inkscape:connector-curvature="0"
     sodipodi:nodetypes="ssssssssssssss" />
  <path
     d="M0 0h24v24H0V0z"
     fill="none"
     id="path4196" />
  <path
     d="M17 8H7c-2.21 0-4 1.79-4 4s1.79 4 4 4h10c2.21 0 4-1.79 4-4s-1.79-4-4-4zM7 15c-1.66 0-3-1.34-3-3s1.34-3 3-3 3 1.34 3 3-1.34 3-3 3z"
     opacity=".3"
     id="path4198"
     style="fill:#ff7a7a;fill-opacity:1;opacity:1" />
  <path
     d="m 7,7.5636893 c -2.4547586,0 -4.4363107,1.9815521 -4.4363107,4.4363107 0,2.454759 1.9815521,4.436311 4.4363107,4.436311 2.4547586,0 4.436311,-1.981552 4.436311,-4.436311 C 11.436311,9.5452414 9.4547586,7.5636893 7,7.5636893 Z"
     id="path4200"
     style="fill:#484848;fill-opacity:1"
     inkscape:connector-curvature="0"
     sodipodi:nodetypes="sssss" />
</svg>
