<?xml version="1.0" encoding="UTF-8" standalone="no"?>
<svg
   xmlns:dc="http://purl.org/dc/elements/1.1/"
   xmlns:cc="http://creativecommons.org/ns#"
   xmlns:rdf="http://www.w3.org/1999/02/22-rdf-syntax-ns#"
   xmlns:svg="http://www.w3.org/2000/svg"
   xmlns="http://www.w3.org/2000/svg"
   xmlns:sodipodi="http://sodipodi.sourceforge.net/DTD/sodipodi-0.dtd"
   xmlns:inkscape="http://www.inkscape.org/namespaces/inkscape"
   enable-background="new 0 0 24 24"
   height="24"
   viewBox="0 0 24 24"
   width="24"
   id="svg4154"
   version="1.1"
   inkscape:version="0.91 r13725"
   sodipodi:docname="update.svg">
  <metadata
     id="metadata4170">
    <rdf:RDF>
      <cc:Work
         rdf:about="">
        <dc:format>image/svg+xml</dc:format>
        <dc:type
           rdf:resource="http://purl.org/dc/dcmitype/StillImage" />
      </cc:Work>
    </rdf:RDF>
  </metadata>
  <defs
     id="defs4168" />
  <sodipodi:namedview
     pagecolor="#ffffff"
     bordercolor="#666666"
     borderopacity="1"
     objecttolerance="10"
     gridtolerance="10"
     guidetolerance="10"
     inkscape:pageopacity="0"
     inkscape:pageshadow="2"
     inkscape:window-width="640"
     inkscape:window-height="480"
     id="namedview4166"
     showgrid="false"
     inkscape:zoom="9.8333333"
     inkscape:cx="12"
     inkscape:cy="12"
     inkscape:window-x="41"
     inkscape:window-y="21"
     inkscape:window-maximized="0"
     inkscape:current-layer="svg4154" />
  <g
     id="g4156">
    <rect
       fill="none"
       height="24"
       width="24"
       id="rect4158" />
  </g>
  <g
     id="g4160"
     style="fill:#333333">
    <g
       id="g4162"
       style="fill:#333333">
      <path
         d="M11,8.75v3.68c0,0.35,0.19,0.68,0.49,0.86l3.12,1.85c0.36,0.21,0.82,0.09,1.03-0.26c0.21-0.36,0.1-0.82-0.26-1.03 l-2.87-1.71v-3.4C12.5,8.34,12.16,8,11.75,8S11,8.34,11,8.75z M21,9.5V4.21c0-0.45-0.54-0.67-0.85-0.35l-1.78,1.78 c-1.81-1.81-4.39-2.85-7.21-2.6c-4.19,0.38-7.64,3.75-8.1,7.94C2.46,16.4,6.69,21,12,21c4.59,0,8.38-3.44,8.93-7.88 c0.07-0.6-0.4-1.12-1-1.12c-0.5,0-0.92,0.37-0.98,0.86c-0.43,3.49-3.44,6.19-7.05,6.14c-3.71-0.05-6.84-3.18-6.9-6.9 C4.94,8.2,8.11,5,12,5c1.93,0,3.68,0.79,4.95,2.05l-2.09,2.09C14.54,9.46,14.76,10,15.21,10h5.29C20.78,10,21,9.78,21,9.5z"
         id="path4164"
         style="fill:#333333" />
    </g>
  </g>
</svg>
